solid OpenSCAD_Model
  facet normal 0.29028468175097155 -0.9569403343682077 0
    outer loop
      vertex 1.6913417130708694 0.03806023299694061 0
      vertex 1.5975451618432999 0.009607359766960144 221
      vertex 1.5975451618432999 0.009607359766960144 0
    endloop
  endfacet
  facet normal 0.29028468175097155 -0.9569403343682077 0
    outer loop
      vertex 1.6913417130708694 0.03806023299694061 0
      vertex 1.6913417130708694 0.03806023299694061 221
      vertex 1.5975451618432999 0.009607359766960144 221
    endloop
  endfacet
  facet normal 0.4713967440128266 -0.8819212605069149 0
    outer loop
      vertex 1.7777851149439812 0.08426519483327866 0
      vertex 1.6913417130708694 0.03806023299694061 221
      vertex 1.6913417130708694 0.03806023299694061 0
    endloop
  endfacet
  facet normal 0.4713967440128266 -0.8819212605069149 0
    outer loop
      vertex 1.7777851149439812 0.08426519483327866 0
      vertex 1.7777851149439812 0.08426519483327866 221
      vertex 1.6913417130708694 0.03806023299694061 221
    endloop
  endfacet
  facet normal 0.6343932547907689 -0.7730104774684329 0
    outer loop
      vertex 1.8535533919930458 0.1464466080069542 0
      vertex 1.7777851149439812 0.08426519483327866 221
      vertex 1.7777851149439812 0.08426519483327866 0
    endloop
  endfacet
  facet normal 0.6343932547907689 -0.7730104774684329 0
    outer loop
      vertex 1.8535533919930458 0.1464466080069542 0
      vertex 1.8535533919930458 0.1464466080069542 221
      vertex 1.7777851149439812 0.08426519483327866 221
    endloop
  endfacet
  facet normal 0.7730104774684329 -0.6343932547907689 0
    outer loop
      vertex 1.9157348051667213 0.22221488505601883 0
      vertex 1.8535533919930458 0.1464466080069542 221
      vertex 1.8535533919930458 0.1464466080069542 0
    endloop
  endfacet
  facet normal 0.7730104774684329 -0.6343932547907689 0
    outer loop
      vertex 1.9157348051667213 0.22221488505601883 0
      vertex 1.9157348051667213 0.22221488505601883 221
      vertex 1.8535533919930458 0.1464466080069542 221
    endloop
  endfacet
  facet normal 0.8819212605069149 -0.4713967440128266 0
    outer loop
      vertex 1.9619397670030594 0.30865828692913055 0
      vertex 1.9157348051667213 0.22221488505601883 221
      vertex 1.9157348051667213 0.22221488505601883 0
    endloop
  endfacet
  facet normal 0.8819212605069149 -0.4713967440128266 0
    outer loop
      vertex 1.9619397670030594 0.30865828692913055 0
      vertex 1.9619397670030594 0.30865828692913055 221
      vertex 1.9157348051667213 0.22221488505601883 221
    endloop
  endfacet
  facet normal 0.9569403343682077 -0.29028468175097155 0
    outer loop
      vertex 1.9903926402330399 0.40245483815670013 0
      vertex 1.9619397670030594 0.30865828692913055 221
      vertex 1.9619397670030594 0.30865828692913055 0
    endloop
  endfacet
  facet normal 0.9569403343682077 -0.29028468175097155 0
    outer loop
      vertex 1.9903926402330399 0.40245483815670013 0
      vertex 1.9903926402330399 0.40245483815670013 221
      vertex 1.9619397670030594 0.30865828692913055 221
    endloop
  endfacet
  facet normal 0.9951847267853376 -0.0980171391808235 0
    outer loop
      vertex 2 0.5 0
      vertex 1.9903926402330399 0.40245483815670013 221
      vertex 1.9903926402330399 0.40245483815670013 0
    endloop
  endfacet
  facet normal 0.9951847267853376 -0.0980171391808235 0
    outer loop
      vertex 2 0.5 0
      vertex 2 0.5 221
      vertex 1.9903926402330399 0.40245483815670013 221
    endloop
  endfacet
  facet normal 1 0 0
    outer loop
      vertex 2 7.5 0
      vertex 2 0.5 221
      vertex 2 0.5 0
    endloop
  endfacet
  facet normal 1 0 0
    outer loop
      vertex 2 7.5 0
      vertex 2 7.5 221
      vertex 2 0.5 221
    endloop
  endfacet
  facet normal 0.9951847267853376 -0.0980171391808235 0
    outer loop
      vertex 2.00960735976696 7.5975451618433 0
      vertex 2 7.5 221
      vertex 2 7.5 0
    endloop
  endfacet
  facet normal 0.9951847267853376 -0.0980171391808235 0
    outer loop
      vertex 2.00960735976696 7.5975451618433 0
      vertex 2.00960735976696 7.5975451618433 221
      vertex 2 7.5 221
    endloop
  endfacet
  facet normal 0.9569403343682077 -0.29028468175097155 0
    outer loop
      vertex 2.0380602329969406 7.6913417130708694 0
      vertex 2.00960735976696 7.5975451618433 221
      vertex 2.00960735976696 7.5975451618433 0
    endloop
  endfacet
  facet normal 0.9569403343682077 -0.29028468175097155 0
    outer loop
      vertex 2.0380602329969406 7.6913417130708694 0
      vertex 2.0380602329969406 7.6913417130708694 221
      vertex 2.00960735976696 7.5975451618433 221
    endloop
  endfacet
  facet normal 0.8819212605069149 -0.4713967440128266 0
    outer loop
      vertex 2.0842651948332787 7.777785114943981 0
      vertex 2.0380602329969406 7.6913417130708694 221
      vertex 2.0380602329969406 7.6913417130708694 0
    endloop
  endfacet
  facet normal 0.8819212605069149 -0.4713967440128266 0
    outer loop
      vertex 2.0842651948332787 7.777785114943981 0
      vertex 2.0842651948332787 7.777785114943981 221
      vertex 2.0380602329969406 7.6913417130708694 221
    endloop
  endfacet
  facet normal 0.7730104774684329 -0.6343932547907689 0
    outer loop
      vertex 2.146446608006954 7.853553391993046 0
      vertex 2.0842651948332787 7.777785114943981 221
      vertex 2.0842651948332787 7.777785114943981 0
    endloop
  endfacet
  facet normal 0.7730104774684329 -0.6343932547907689 0
    outer loop
      vertex 2.146446608006954 7.853553391993046 0
      vertex 2.146446608006954 7.853553391993046 221
      vertex 2.0842651948332787 7.777785114943981 221
    endloop
  endfacet
  facet normal 0.6343932547907689 -0.7730104774684329 0
    outer loop
      vertex 2.222214885056019 7.915734805166721 0
      vertex 2.146446608006954 7.853553391993046 221
      vertex 2.146446608006954 7.853553391993046 0
    endloop
  endfacet
  facet normal 0.6343932547907689 -0.7730104774684329 0
    outer loop
      vertex 2.222214885056019 7.915734805166721 0
      vertex 2.222214885056019 7.915734805166721 221
      vertex 2.146446608006954 7.853553391993046 221
    endloop
  endfacet
  facet normal 0.4713967440128266 -0.8819212605069149 0
    outer loop
      vertex 2.3086582869291306 7.961939767003059 0
      vertex 2.222214885056019 7.915734805166721 221
      vertex 2.222214885056019 7.915734805166721 0
    endloop
  endfacet
  facet normal 0.4713967440128266 -0.8819212605069149 0
    outer loop
      vertex 2.3086582869291306 7.961939767003059 0
      vertex 2.3086582869291306 7.961939767003059 221
      vertex 2.222214885056019 7.915734805166721 221
    endloop
  endfacet
  facet normal 0.29028468175097155 -0.9569403343682077 0
    outer loop
      vertex 2.4024548381567 7.99039264023304 0
      vertex 2.3086582869291306 7.961939767003059 221
      vertex 2.3086582869291306 7.961939767003059 0
    endloop
  endfacet
  facet normal 0.29028468175097155 -0.9569403343682077 0
    outer loop
      vertex 2.4024548381567 7.99039264023304 0
      vertex 2.4024548381567 7.99039264023304 221
      vertex 2.3086582869291306 7.961939767003059 221
    endloop
  endfacet
  facet normal 0.0980171391808235 -0.9951847267853376 0
    outer loop
      vertex 2.5 8 0
      vertex 2.4024548381567 7.99039264023304 221
      vertex 2.4024548381567 7.99039264023304 0
    endloop
  endfacet
  facet normal 0.0980171391808235 -0.9951847267853376 0
    outer loop
      vertex 2.5 8 0
      vertex 2.5 8 221
      vertex 2.4024548381567 7.99039264023304 221
    endloop
  endfacet
  facet normal 0 -1 0
    outer loop
      vertex 4.799999997019768 8 0
      vertex 2.5 8 221
      vertex 2.5 8 0
    endloop
  endfacet
  facet normal 0 -1 0
    outer loop
      vertex 4.799999997019768 8 0
      vertex 4.799999997019768 8 221
      vertex 2.5 8 221
    endloop
  endfacet
  facet normal -0.0980171391808235 -0.9951847267853376 0
    outer loop
      vertex 4.897545158863068 7.99039264023304 0
      vertex 4.799999997019768 8 221
      vertex 4.799999997019768 8 0
    endloop
  endfacet
  facet normal -0.0980171391808235 -0.9951847267853376 0
    outer loop
      vertex 4.897545158863068 7.99039264023304 0
      vertex 4.897545158863068 7.99039264023304 221
      vertex 4.799999997019768 8 221
    endloop
  endfacet
  facet normal -0.29028466063568126 -0.9569403407734608 0
    outer loop
      vertex 4.991341717541218 7.961939767003059 0
      vertex 4.897545158863068 7.99039264023304 221
      vertex 4.897545158863068 7.99039264023304 0
    endloop
  endfacet
  facet normal -0.29028466063568126 -0.9569403407734608 0
    outer loop
      vertex 4.991341717541218 7.961939767003059 0
      vertex 4.991341717541218 7.961939767003059 221
      vertex 4.897545158863068 7.99039264023304 221
    endloop
  endfacet
  facet normal -0.4713967440128266 -0.8819212605069149 0
    outer loop
      vertex 5.0777851194143295 7.915734805166721 0
      vertex 4.991341717541218 7.961939767003059 221
      vertex 4.991341717541218 7.961939767003059 0
    endloop
  endfacet
  facet normal -0.4713967440128266 -0.8819212605069149 0
    outer loop
      vertex 5.0777851194143295 7.915734805166721 0
      vertex 5.0777851194143295 7.915734805166721 221
      vertex 4.991341717541218 7.961939767003059 221
    endloop
  endfacet
  facet normal -0.6343932920670038 -0.7730104468766184 0
    outer loop
      vertex 5.153553389012814 7.853553391993046 0
      vertex 5.0777851194143295 7.915734805166721 221
      vertex 5.0777851194143295 7.915734805166721 0
    endloop
  endfacet
  facet normal -0.6343932920670038 -0.7730104468766184 0
    outer loop
      vertex 5.153553389012814 7.853553391993046 0
      vertex 5.153553389012814 7.853553391993046 221
      vertex 5.0777851194143295 7.915734805166721 221
    endloop
  endfacet
  facet normal -0.7730104401921999 -0.634393300211991 0
    outer loop
      vertex 5.21573480963707 7.777785114943981 0
      vertex 5.153553389012814 7.853553391993046 221
      vertex 5.153553389012814 7.853553391993046 0
    endloop
  endfacet
  facet normal -0.7730104401921999 -0.634393300211991 0
    outer loop
      vertex 5.21573480963707 7.777785114943981 0
      vertex 5.21573480963707 7.777785114943981 221
      vertex 5.153553389012814 7.853553391993046 221
    endloop
  endfacet
  facet normal -0.8819212921081792 -0.47139668489101577 0
    outer loop
      vertex 5.261939764022827 7.6913417130708694 0
      vertex 5.21573480963707 7.777785114943981 221
      vertex 5.21573480963707 7.777785114943981 0
    endloop
  endfacet
  facet normal -0.8819212921081792 -0.47139668489101577 0
    outer loop
      vertex 5.261939764022827 7.6913417130708694 0
      vertex 5.261939764022827 7.6913417130708694 221
      vertex 5.21573480963707 7.777785114943981 221
    endloop
  endfacet
  facet normal -0.9569403343682077 -0.29028468175097155 0
    outer loop
      vertex 5.290392637252808 7.5975451618433 0
      vertex 5.261939764022827 7.6913417130708694 221
      vertex 5.261939764022827 7.6913417130708694 0
    endloop
  endfacet
  facet normal -0.9569403343682077 -0.29028468175097155 0
    outer loop
      vertex 5.290392637252808 7.5975451618433 0
      vertex 5.290392637252808 7.5975451618433 221
      vertex 5.261939764022827 7.6913417130708694 221
    endloop
  endfacet
  facet normal -0.9951847267853376 -0.0980171391808235 0
    outer loop
      vertex 5.299999997019768 7.5 0
      vertex 5.290392637252808 7.5975451618433 221
      vertex 5.290392637252808 7.5975451618433 0
    endloop
  endfacet
  facet normal -0.9951847267853376 -0.0980171391808235 0
    outer loop
      vertex 5.299999997019768 7.5 0
      vertex 5.299999997019768 7.5 221
      vertex 5.290392637252808 7.5975451618433 221
    endloop
  endfacet
  facet normal -1 0 0
    outer loop
      vertex 5.299999997019768 4 0
      vertex 5.299999997019768 7.5 221
      vertex 5.299999997019768 7.5 0
    endloop
  endfacet
  facet normal -1 0 0
    outer loop
      vertex 5.299999997019768 4 0
      vertex 5.299999997019768 4 221
      vertex 5.299999997019768 7.5 221
    endloop
  endfacet
  facet normal -0.9284766937477519 0.3713906691978722 0
    outer loop
      vertex 5.100000001490116 3.5 0
      vertex 5.299999997019768 4 221
      vertex 5.299999997019768 4 0
    endloop
  endfacet
  facet normal -0.9284766937477519 0.3713906691978722 0
    outer loop
      vertex 5.100000001490116 3.5 0
      vertex 5.100000001490116 3.5 221
      vertex 5.299999997019768 4 221
    endloop
  endfacet
  facet normal -1 0 0
    outer loop
      vertex 5.100000001490116 2.5 0
      vertex 5.100000001490116 3.5 221
      vertex 5.100000001490116 3.5 0
    endloop
  endfacet
  facet normal -1 0 0
    outer loop
      vertex 5.100000001490116 2.5 0
      vertex 5.100000001490116 2.5 221
      vertex 5.100000001490116 3.5 221
    endloop
  endfacet
  facet normal -0.9284766937477519 -0.3713906691978722 0
    outer loop
      vertex 5.299999997019768 2 0
      vertex 5.100000001490116 2.5 221
      vertex 5.100000001490116 2.5 0
    endloop
  endfacet
  facet normal -0.9284766937477519 -0.3713906691978722 0
    outer loop
      vertex 5.299999997019768 2 0
      vertex 5.299999997019768 2 221
      vertex 5.100000001490116 2.5 221
    endloop
  endfacet
  facet normal -1 0 0
    outer loop
      vertex 5.299999997019768 0.5 0
      vertex 5.299999997019768 2 221
      vertex 5.299999997019768 2 0
    endloop
  endfacet
  facet normal -1 0 0
    outer loop
      vertex 5.299999997019768 0.5 0
      vertex 5.299999997019768 0.5 221
      vertex 5.299999997019768 2 221
    endloop
  endfacet
  facet normal -0.9951847267853376 -0.0980171391808235 0
    outer loop
      vertex 5.309607356786728 0.40245483815670013 0
      vertex 5.299999997019768 0.5 221
      vertex 5.299999997019768 0.5 0
    endloop
  endfacet
  facet normal -0.9951847267853376 -0.0980171391808235 0
    outer loop
      vertex 5.309607356786728 0.40245483815670013 0
      vertex 5.309607356786728 0.40245483815670013 221
      vertex 5.299999997019768 0.5 221
    endloop
  endfacet
  facet normal -0.9569403132529138 -0.2902847513587563 0
    outer loop
      vertex 5.338060237467289 0.30865828692913055 0
      vertex 5.309607356786728 0.40245483815670013 221
      vertex 5.309607356786728 0.40245483815670013 0
    endloop
  endfacet
  facet normal -0.9569403132529138 -0.2902847513587563 0
    outer loop
      vertex 5.338060237467289 0.30865828692913055 0
      vertex 5.338060237467289 0.30865828692913055 221
      vertex 5.309607356786728 0.40245483815670013 221
    endloop
  endfacet
  facet normal -0.8819212921081792 -0.47139668489101577 0
    outer loop
      vertex 5.384265191853046 0.22221488505601883 0
      vertex 5.338060237467289 0.30865828692913055 221
      vertex 5.338060237467289 0.30865828692913055 0
    endloop
  endfacet
  facet normal -0.8819212921081792 -0.47139668489101577 0
    outer loop
      vertex 5.384265191853046 0.22221488505601883 0
      vertex 5.384265191853046 0.22221488505601883 221
      vertex 5.338060237467289 0.30865828692913055 221
    endloop
  endfacet
  facet normal -0.7730104401921999 -0.634393300211991 0
    outer loop
      vertex 5.4464466124773026 0.1464466080069542 0
      vertex 5.384265191853046 0.22221488505601883 221
      vertex 5.384265191853046 0.22221488505601883 0
    endloop
  endfacet
  facet normal -0.7730104401921999 -0.634393300211991 0
    outer loop
      vertex 5.4464466124773026 0.1464466080069542 0
      vertex 5.4464466124773026 0.1464466080069542 221
      vertex 5.384265191853046 0.22221488505601883 221
    endloop
  endfacet
  facet normal -0.6343932920670038 -0.7730104468766184 0
    outer loop
      vertex 5.522214882075787 0.08426519483327866 0
      vertex 5.4464466124773026 0.1464466080069542 221
      vertex 5.4464466124773026 0.1464466080069542 0
    endloop
  endfacet
  facet normal -0.6343932920670038 -0.7730104468766184 0
    outer loop
      vertex 5.522214882075787 0.08426519483327866 0
      vertex 5.522214882075787 0.08426519483327866 221
      vertex 5.4464466124773026 0.1464466080069542 221
    endloop
  endfacet
  facet normal -0.4713967440128266 -0.8819212605069149 0
    outer loop
      vertex 5.608658283948898 0.03806023299694061 0
      vertex 5.522214882075787 0.08426519483327866 221
      vertex 5.522214882075787 0.08426519483327866 0
    endloop
  endfacet
  facet normal -0.4713967440128266 -0.8819212605069149 0
    outer loop
      vertex 5.608658283948898 0.03806023299694061 0
      vertex 5.608658283948898 0.03806023299694061 221
      vertex 5.522214882075787 0.08426519483327866 221
    endloop
  endfacet
  facet normal -0.29028466063568126 -0.9569403407734608 0
    outer loop
      vertex 5.7024548426270485 0.009607359766960144 0
      vertex 5.608658283948898 0.03806023299694061 221
      vertex 5.608658283948898 0.03806023299694061 0
    endloop
  endfacet
  facet normal -0.29028466063568126 -0.9569403407734608 0
    outer loop
      vertex 5.7024548426270485 0.009607359766960144 0
      vertex 5.7024548426270485 0.009607359766960144 221
      vertex 5.608658283948898 0.03806023299694061 221
    endloop
  endfacet
  facet normal -0.09801714659552792 -0.9951847260550529 0
    outer loop
      vertex 5.799999997019768 0 0
      vertex 5.7024548426270485 0.009607359766960144 221
      vertex 5.7024548426270485 0.009607359766960144 0
    endloop
  endfacet
  facet normal -0.09801714659552792 -0.9951847260550529 0
    outer loop
      vertex 5.799999997019768 0 0
      vertex 5.799999997019768 0 221
      vertex 5.7024548426270485 0.009607359766960144 221
    endloop
  endfacet
  facet normal 0 -1 0
    outer loop
      vertex 6.799999997019768 0 0
      vertex 5.799999997019768 0 221
      vertex 5.799999997019768 0 0
    endloop
  endfacet
  facet normal 0 -1 0
    outer loop
      vertex 6.799999997019768 0 0
      vertex 6.799999997019768 0 221
      vertex 5.799999997019768 0 221
    endloop
  endfacet
  facet normal 0.0980171391808235 -0.9951847267853376 0
    outer loop
      vertex 6.897545158863068 0.009607359766960144 0
      vertex 6.799999997019768 0 221
      vertex 6.799999997019768 0 0
    endloop
  endfacet
  facet normal 0.0980171391808235 -0.9951847267853376 0
    outer loop
      vertex 6.897545158863068 0.009607359766960144 0
      vertex 6.897545158863068 0.009607359766960144 221
      vertex 6.799999997019768 0 221
    endloop
  endfacet
  facet normal 0.29028466063568126 -0.9569403407734608 0
    outer loop
      vertex 6.991341717541218 0.03806023299694061 0
      vertex 6.897545158863068 0.009607359766960144 221
      vertex 6.897545158863068 0.009607359766960144 0
    endloop
  endfacet
  facet normal 0.29028466063568126 -0.9569403407734608 0
    outer loop
      vertex 6.991341717541218 0.03806023299694061 0
      vertex 6.991341717541218 0.03806023299694061 221
      vertex 6.897545158863068 0.009607359766960144 221
    endloop
  endfacet
  facet normal 0.4713967440128266 -0.8819212605069149 0
    outer loop
      vertex 7.0777851194143295 0.08426519483327866 0
      vertex 6.991341717541218 0.03806023299694061 221
      vertex 6.991341717541218 0.03806023299694061 0
    endloop
  endfacet
  facet normal 0.4713967440128266 -0.8819212605069149 0
    outer loop
      vertex 7.0777851194143295 0.08426519483327866 0
      vertex 7.0777851194143295 0.08426519483327866 221
      vertex 6.991341717541218 0.03806023299694061 221
    endloop
  endfacet
  facet normal 0.6343932920670038 -0.7730104468766184 0
    outer loop
      vertex 7.153553389012814 0.1464466080069542 0
      vertex 7.0777851194143295 0.08426519483327866 221
      vertex 7.0777851194143295 0.08426519483327866 0
    endloop
  endfacet
  facet normal 0.6343932920670038 -0.7730104468766184 0
    outer loop
      vertex 7.153553389012814 0.1464466080069542 0
      vertex 7.153553389012814 0.1464466080069542 221
      vertex 7.0777851194143295 0.08426519483327866 221
    endloop
  endfacet
  facet normal 0.7730104401921999 -0.634393300211991 0
    outer loop
      vertex 7.21573480963707 0.22221488505601883 0
      vertex 7.153553389012814 0.1464466080069542 221
      vertex 7.153553389012814 0.1464466080069542 0
    endloop
  endfacet
  facet normal 0.7730104401921999 -0.634393300211991 0
    outer loop
      vertex 7.21573480963707 0.22221488505601883 0
      vertex 7.21573480963707 0.22221488505601883 221
      vertex 7.153553389012814 0.1464466080069542 221
    endloop
  endfacet
  facet normal 0.8819212921081792 -0.47139668489101577 0
    outer loop
      vertex 7.261939764022827 0.30865828692913055 0
      vertex 7.21573480963707 0.22221488505601883 221
      vertex 7.21573480963707 0.22221488505601883 0
    endloop
  endfacet
  facet normal 0.8819212921081792 -0.47139668489101577 0
    outer loop
      vertex 7.261939764022827 0.30865828692913055 0
      vertex 7.261939764022827 0.30865828692913055 221
      vertex 7.21573480963707 0.22221488505601883 221
    endloop
  endfacet
  facet normal 0.9569403343682077 -0.29028468175097155 0
    outer loop
      vertex 7.290392637252808 0.40245483815670013 0
      vertex 7.261939764022827 0.30865828692913055 221
      vertex 7.261939764022827 0.30865828692913055 0
    endloop
  endfacet
  facet normal 0.9569403343682077 -0.29028468175097155 0
    outer loop
      vertex 7.290392637252808 0.40245483815670013 0
      vertex 7.290392637252808 0.40245483815670013 221
      vertex 7.261939764022827 0.30865828692913055 221
    endloop
  endfacet
  facet normal 0.9951847267853376 -0.0980171391808235 0
    outer loop
      vertex 7.299999997019768 0.5 0
      vertex 7.290392637252808 0.40245483815670013 221
      vertex 7.290392637252808 0.40245483815670013 0
    endloop
  endfacet
  facet normal 0.9951847267853376 -0.0980171391808235 0
    outer loop
      vertex 7.299999997019768 0.5 0
      vertex 7.299999997019768 0.5 221
      vertex 7.290392637252808 0.40245483815670013 221
    endloop
  endfacet
  facet normal 1 0 0
    outer loop
      vertex 7.299999997019768 9.5 0
      vertex 7.299999997019768 0.5 221
      vertex 7.299999997019768 0.5 0
    endloop
  endfacet
  facet normal 1 0 0
    outer loop
      vertex 7.299999997019768 9.5 0
      vertex 7.299999997019768 9.5 221
      vertex 7.299999997019768 0.5 221
    endloop
  endfacet
  facet normal 0.9951847267853376 0.0980171391808235 0
    outer loop
      vertex 7.290392637252808 9.5975451618433 0
      vertex 7.299999997019768 9.5 221
      vertex 7.299999997019768 9.5 0
    endloop
  endfacet
  facet normal 0.9951847267853376 0.0980171391808235 0
    outer loop
      vertex 7.290392637252808 9.5975451618433 0
      vertex 7.290392637252808 9.5975451618433 221
      vertex 7.299999997019768 9.5 221
    endloop
  endfacet
  facet normal 0.9569403343682077 0.29028468175097155 0
    outer loop
      vertex 7.261939764022827 9.69134171307087 0
      vertex 7.290392637252808 9.5975451618433 221
      vertex 7.290392637252808 9.5975451618433 0
    endloop
  endfacet
  facet normal 0.9569403343682077 0.29028468175097155 0
    outer loop
      vertex 7.261939764022827 9.69134171307087 0
      vertex 7.261939764022827 9.69134171307087 221
      vertex 7.290392637252808 9.5975451618433 221
    endloop
  endfacet
  facet normal 0.8819212921081792 0.47139668489101577 0
    outer loop
      vertex 7.21573480963707 9.777785114943981 0
      vertex 7.261939764022827 9.69134171307087 221
      vertex 7.261939764022827 9.69134171307087 0
    endloop
  endfacet
  facet normal 0.8819212921081792 0.47139668489101577 0
    outer loop
      vertex 7.21573480963707 9.777785114943981 0
      vertex 7.21573480963707 9.777785114943981 221
      vertex 7.261939764022827 9.69134171307087 221
    endloop
  endfacet
  facet normal 0.7730104401921999 0.634393300211991 0
    outer loop
      vertex 7.153553389012814 9.853553391993046 0
      vertex 7.21573480963707 9.777785114943981 221
      vertex 7.21573480963707 9.777785114943981 0
    endloop
  endfacet
  facet normal 0.7730104401921999 0.634393300211991 0
    outer loop
      vertex 7.153553389012814 9.853553391993046 0
      vertex 7.153553389012814 9.853553391993046 221
      vertex 7.21573480963707 9.777785114943981 221
    endloop
  endfacet
  facet normal 0.6343932920670038 0.7730104468766184 0
    outer loop
      vertex 7.0777851194143295 9.915734805166721 0
      vertex 7.153553389012814 9.853553391993046 221
      vertex 7.153553389012814 9.853553391993046 0
    endloop
  endfacet
  facet normal 0.6343932920670038 0.7730104468766184 0
    outer loop
      vertex 7.0777851194143295 9.915734805166721 0
      vertex 7.0777851194143295 9.915734805166721 221
      vertex 7.153553389012814 9.853553391993046 221
    endloop
  endfacet
  facet normal 0.4713967440128266 0.8819212605069149 0
    outer loop
      vertex 6.991341717541218 9.96193976700306 0
      vertex 7.0777851194143295 9.915734805166721 221
      vertex 7.0777851194143295 9.915734805166721 0
    endloop
  endfacet
  facet normal 0.4713967440128266 0.8819212605069149 0
    outer loop
      vertex 6.991341717541218 9.96193976700306 0
      vertex 6.991341717541218 9.96193976700306 221
      vertex 7.0777851194143295 9.915734805166721 221
    endloop
  endfacet
  facet normal 0.29028466063568126 0.9569403407734608 0
    outer loop
      vertex 6.897545158863068 9.99039264023304 0
      vertex 6.991341717541218 9.96193976700306 221
      vertex 6.991341717541218 9.96193976700306 0
    endloop
  endfacet
  facet normal 0.29028466063568126 0.9569403407734608 0
    outer loop
      vertex 6.897545158863068 9.99039264023304 0
      vertex 6.897545158863068 9.99039264023304 221
      vertex 6.991341717541218 9.96193976700306 221
    endloop
  endfacet
  facet normal 0.0980171391808235 0.9951847267853376 0
    outer loop
      vertex 6.799999997019768 10 0
      vertex 6.897545158863068 9.99039264023304 221
      vertex 6.897545158863068 9.99039264023304 0
    endloop
  endfacet
  facet normal 0.0980171391808235 0.9951847267853376 0
    outer loop
      vertex 6.799999997019768 10 0
      vertex 6.799999997019768 10 221
      vertex 6.897545158863068 9.99039264023304 221
    endloop
  endfacet
  facet normal 0 1 0
    outer loop
      vertex 0.5 10 0
      vertex 6.799999997019768 10 221
      vertex 6.799999997019768 10 0
    endloop
  endfacet
  facet normal 0 1 0
    outer loop
      vertex 0.5 10 0
      vertex 0.5 10 221
      vertex 6.799999997019768 10 221
    endloop
  endfacet
  facet normal -0.0980171391808235 0.9951847267853376 0
    outer loop
      vertex 0.40245483815670013 9.99039264023304 0
      vertex 0.5 10 221
      vertex 0.5 10 0
    endloop
  endfacet
  facet normal -0.0980171391808235 0.9951847267853376 0
    outer loop
      vertex 0.40245483815670013 9.99039264023304 0
      vertex 0.40245483815670013 9.99039264023304 221
      vertex 0.5 10 221
    endloop
  endfacet
  facet normal -0.29028468175097155 0.9569403343682077 0
    outer loop
      vertex 0.30865828692913055 9.96193976700306 0
      vertex 0.40245483815670013 9.99039264023304 221
      vertex 0.40245483815670013 9.99039264023304 0
    endloop
  endfacet
  facet normal -0.29028468175097155 0.9569403343682077 0
    outer loop
      vertex 0.30865828692913055 9.96193976700306 0
      vertex 0.30865828692913055 9.96193976700306 221
      vertex 0.40245483815670013 9.99039264023304 221
    endloop
  endfacet
  facet normal -0.4713967440128266 0.8819212605069149 0
    outer loop
      vertex 0.22221488505601883 9.915734805166721 0
      vertex 0.30865828692913055 9.96193976700306 221
      vertex 0.30865828692913055 9.96193976700306 0
    endloop
  endfacet
  facet normal -0.4713967440128266 0.8819212605069149 0
    outer loop
      vertex 0.22221488505601883 9.915734805166721 0
      vertex 0.22221488505601883 9.915734805166721 221
      vertex 0.30865828692913055 9.96193976700306 221
    endloop
  endfacet
  facet normal -0.6343932547907689 0.7730104774684329 0
    outer loop
      vertex 0.1464466080069542 9.853553391993046 0
      vertex 0.22221488505601883 9.915734805166721 221
      vertex 0.22221488505601883 9.915734805166721 0
    endloop
  endfacet
  facet normal -0.6343932547907689 0.7730104774684329 0
    outer loop
      vertex 0.1464466080069542 9.853553391993046 0
      vertex 0.1464466080069542 9.853553391993046 221
      vertex 0.22221488505601883 9.915734805166721 221
    endloop
  endfacet
  facet normal -0.7730104774684329 0.6343932547907689 0
    outer loop
      vertex 0.08426519483327866 9.777785114943981 0
      vertex 0.1464466080069542 9.853553391993046 221
      vertex 0.1464466080069542 9.853553391993046 0
    endloop
  endfacet
  facet normal -0.7730104774684329 0.6343932547907689 0
    outer loop
      vertex 0.08426519483327866 9.777785114943981 0
      vertex 0.08426519483327866 9.777785114943981 221
      vertex 0.1464466080069542 9.853553391993046 221
    endloop
  endfacet
  facet normal -0.8819212605069149 0.4713967440128266 0
    outer loop
      vertex 0.03806023299694061 9.69134171307087 0
      vertex 0.08426519483327866 9.777785114943981 221
      vertex 0.08426519483327866 9.777785114943981 0
    endloop
  endfacet
  facet normal -0.8819212605069149 0.4713967440128266 0
    outer loop
      vertex 0.03806023299694061 9.69134171307087 0
      vertex 0.03806023299694061 9.69134171307087 221
      vertex 0.08426519483327866 9.777785114943981 221
    endloop
  endfacet
  facet normal -0.9569403343682077 0.29028468175097155 0
    outer loop
      vertex 0.009607359766960144 9.5975451618433 0
      vertex 0.03806023299694061 9.69134171307087 221
      vertex 0.03806023299694061 9.69134171307087 0
    endloop
  endfacet
  facet normal -0.9569403343682077 0.29028468175097155 0
    outer loop
      vertex 0.009607359766960144 9.5975451618433 0
      vertex 0.009607359766960144 9.5975451618433 221
      vertex 0.03806023299694061 9.69134171307087 221
    endloop
  endfacet
  facet normal -0.9951847267853376 0.0980171391808235 0
    outer loop
      vertex 0 9.5 0
      vertex 0.009607359766960144 9.5975451618433 221
      vertex 0.009607359766960144 9.5975451618433 0
    endloop
  endfacet
  facet normal -0.9951847267853376 0.0980171391808235 0
    outer loop
      vertex 0 9.5 0
      vertex 0 9.5 221
      vertex 0.009607359766960144 9.5975451618433 221
    endloop
  endfacet
  facet normal -1 0 0
    outer loop
      vertex 0 0.5 0
      vertex 0 9.5 221
      vertex 0 9.5 0
    endloop
  endfacet
  facet normal -1 0 0
    outer loop
      vertex 0 0.5 0
      vertex 0 0.5 221
      vertex 0 9.5 221
    endloop
  endfacet
  facet normal -0.9951847267853376 -0.0980171391808235 0
    outer loop
      vertex 0.009607359766960144 0.40245483815670013 0
      vertex 0 0.5 221
      vertex 0 0.5 0
    endloop
  endfacet
  facet normal -0.9951847267853376 -0.0980171391808235 0
    outer loop
      vertex 0.009607359766960144 0.40245483815670013 0
      vertex 0.009607359766960144 0.40245483815670013 221
      vertex 0 0.5 221
    endloop
  endfacet
  facet normal -0.9569403343682077 -0.29028468175097155 0
    outer loop
      vertex 0.03806023299694061 0.30865828692913055 0
      vertex 0.009607359766960144 0.40245483815670013 221
      vertex 0.009607359766960144 0.40245483815670013 0
    endloop
  endfacet
  facet normal -0.9569403343682077 -0.29028468175097155 0
    outer loop
      vertex 0.03806023299694061 0.30865828692913055 0
      vertex 0.03806023299694061 0.30865828692913055 221
      vertex 0.009607359766960144 0.40245483815670013 221
    endloop
  endfacet
  facet normal -0.8819212605069149 -0.4713967440128266 0
    outer loop
      vertex 0.08426519483327866 0.22221488505601883 0
      vertex 0.03806023299694061 0.30865828692913055 221
      vertex 0.03806023299694061 0.30865828692913055 0
    endloop
  endfacet
  facet normal -0.8819212605069149 -0.4713967440128266 0
    outer loop
      vertex 0.08426519483327866 0.22221488505601883 0
      vertex 0.08426519483327866 0.22221488505601883 221
      vertex 0.03806023299694061 0.30865828692913055 221
    endloop
  endfacet
  facet normal -0.7730104774684329 -0.6343932547907689 0
    outer loop
      vertex 0.1464466080069542 0.1464466080069542 0
      vertex 0.08426519483327866 0.22221488505601883 221
      vertex 0.08426519483327866 0.22221488505601883 0
    endloop
  endfacet
  facet normal -0.7730104774684329 -0.6343932547907689 0
    outer loop
      vertex 0.1464466080069542 0.1464466080069542 0
      vertex 0.1464466080069542 0.1464466080069542 221
      vertex 0.08426519483327866 0.22221488505601883 221
    endloop
  endfacet
  facet normal -0.6343932547907689 -0.7730104774684329 0
    outer loop
      vertex 0.22221488505601883 0.08426519483327866 0
      vertex 0.1464466080069542 0.1464466080069542 221
      vertex 0.1464466080069542 0.1464466080069542 0
    endloop
  endfacet
  facet normal -0.6343932547907689 -0.7730104774684329 0
    outer loop
      vertex 0.22221488505601883 0.08426519483327866 0
      vertex 0.22221488505601883 0.08426519483327866 221
      vertex 0.1464466080069542 0.1464466080069542 221
    endloop
  endfacet
  facet normal -0.4713967440128266 -0.8819212605069149 0
    outer loop
      vertex 0.30865828692913055 0.03806023299694061 0
      vertex 0.22221488505601883 0.08426519483327866 221
      vertex 0.22221488505601883 0.08426519483327866 0
    endloop
  endfacet
  facet normal -0.4713967440128266 -0.8819212605069149 0
    outer loop
      vertex 0.30865828692913055 0.03806023299694061 0
      vertex 0.30865828692913055 0.03806023299694061 221
      vertex 0.22221488505601883 0.08426519483327866 221
    endloop
  endfacet
  facet normal -0.29028468175097155 -0.9569403343682077 0
    outer loop
      vertex 0.40245483815670013 0.009607359766960144 0
      vertex 0.30865828692913055 0.03806023299694061 221
      vertex 0.30865828692913055 0.03806023299694061 0
    endloop
  endfacet
  facet normal -0.29028468175097155 -0.9569403343682077 0
    outer loop
      vertex 0.40245483815670013 0.009607359766960144 0
      vertex 0.40245483815670013 0.009607359766960144 221
      vertex 0.30865828692913055 0.03806023299694061 221
    endloop
  endfacet
  facet normal -0.0980171391808235 -0.9951847267853376 0
    outer loop
      vertex 0.5 0 0
      vertex 0.40245483815670013 0.009607359766960144 221
      vertex 0.40245483815670013 0.009607359766960144 0
    endloop
  endfacet
  facet normal -0.0980171391808235 -0.9951847267853376 0
    outer loop
      vertex 0.5 0 0
      vertex 0.5 0 221
      vertex 0.40245483815670013 0.009607359766960144 221
    endloop
  endfacet
  facet normal 0 -1 0
    outer loop
      vertex 1.5 0 0
      vertex 0.5 0 221
      vertex 0.5 0 0
    endloop
  endfacet
  facet normal 0 -1 0
    outer loop
      vertex 1.5 0 0
      vertex 1.5 0 221
      vertex 0.5 0 221
    endloop
  endfacet
  facet normal 0.0980171391808235 -0.9951847267853376 0
    outer loop
      vertex 1.5975451618432999 0.009607359766960144 0
      vertex 1.5 0 221
      vertex 1.5 0 0
    endloop
  endfacet
  facet normal 0.0980171391808235 -0.9951847267853376 0
    outer loop
      vertex 1.5975451618432999 0.009607359766960144 0
      vertex 1.5975451618432999 0.009607359766960144 221
      vertex 1.5 0 221
    endloop
  endfacet
  facet normal 0 0 -1
    outer loop
      vertex 5.100000001490116 2.5 0
      vertex 5.100000001490116 3.5 0
      vertex 5.299999997019768 4 0
    endloop
  endfacet
  facet normal 0 0 -1
    outer loop
      vertex 5.299999997019768 2 0
      vertex 5.100000001490116 2.5 0
      vertex 5.299999997019768 4 0
    endloop
  endfacet
  facet normal 0 0 -1
    outer loop
      vertex 7.153553389012814 9.853553391993046 0
      vertex 7.21573480963707 9.777785114943981 0
      vertex 7.261939764022827 9.69134171307087 0
    endloop
  endfacet
  facet normal 0 0 -1
    outer loop
      vertex 7.0777851194143295 9.915734805166721 0
      vertex 7.153553389012814 9.853553391993046 0
      vertex 7.261939764022827 9.69134171307087 0
    endloop
  endfacet
  facet normal 0 0 -1
    outer loop
      vertex 6.991341717541218 9.96193976700306 0
      vertex 7.0777851194143295 9.915734805166721 0
      vertex 7.261939764022827 9.69134171307087 0
    endloop
  endfacet
  facet normal 0 0 -1
    outer loop
      vertex 6.897545158863068 9.99039264023304 0
      vertex 6.991341717541218 9.96193976700306 0
      vertex 7.261939764022827 9.69134171307087 0
    endloop
  endfacet
  facet normal 0 0 -1
    outer loop
      vertex 6.799999997019768 10 0
      vertex 6.897545158863068 9.99039264023304 0
      vertex 7.261939764022827 9.69134171307087 0
    endloop
  endfacet
  facet normal 0 0 -1
    outer loop
      vertex 6.799999997019768 10 0
      vertex 7.261939764022827 9.69134171307087 0
      vertex 7.290392637252808 9.5975451618433 0
    endloop
  endfacet
  facet normal 0 0 -1
    outer loop
      vertex 6.799999997019768 10 0
      vertex 7.290392637252808 9.5975451618433 0
      vertex 7.299999997019768 9.5 0
    endloop
  endfacet
  facet normal 0 0 -1
    outer loop
      vertex 0.5 10 0
      vertex 6.799999997019768 10 0
      vertex 7.299999997019768 9.5 0
    endloop
  endfacet
  facet normal 0 0 -1
    outer loop
      vertex 5.4464466124773026 0.1464466080069542 0
      vertex 5.384265191853046 0.22221488505601883 0
      vertex 5.338060237467289 0.30865828692913055 0
    endloop
  endfacet
  facet normal 0 0 -1
    outer loop
      vertex 5.522214882075787 0.08426519483327866 0
      vertex 5.4464466124773026 0.1464466080069542 0
      vertex 5.338060237467289 0.30865828692913055 0
    endloop
  endfacet
  facet normal 0 0 -1
    outer loop
      vertex 5.608658283948898 0.03806023299694061 0
      vertex 5.522214882075787 0.08426519483327866 0
      vertex 5.338060237467289 0.30865828692913055 0
    endloop
  endfacet
  facet normal 0 0 -1
    outer loop
      vertex 5.7024548426270485 0.009607359766960144 0
      vertex 5.608658283948898 0.03806023299694061 0
      vertex 5.338060237467289 0.30865828692913055 0
    endloop
  endfacet
  facet normal 0 0 -1
    outer loop
      vertex 5.799999997019768 0 0
      vertex 5.7024548426270485 0.009607359766960144 0
      vertex 5.338060237467289 0.30865828692913055 0
    endloop
  endfacet
  facet normal 0 0 -1
    outer loop
      vertex 5.799999997019768 0 0
      vertex 5.338060237467289 0.30865828692913055 0
      vertex 5.309607356786728 0.40245483815670013 0
    endloop
  endfacet
  facet normal 0 0 -1
    outer loop
      vertex 5.799999997019768 0 0
      vertex 5.309607356786728 0.40245483815670013 0
      vertex 5.299999997019768 0.5 0
    endloop
  endfacet
  facet normal 0 0 -1
    outer loop
      vertex 5.799999997019768 0 0
      vertex 5.299999997019768 0.5 0
      vertex 5.299999997019768 2 0
    endloop
  endfacet
  facet normal 0 0 -1
    outer loop
      vertex 6.799999997019768 0 0
      vertex 5.799999997019768 0 0
      vertex 5.299999997019768 2 0
    endloop
  endfacet
  facet normal 0 0 -1
    outer loop
      vertex 6.897545158863068 0.009607359766960144 0
      vertex 6.799999997019768 0 0
      vertex 5.299999997019768 2 0
    endloop
  endfacet
  facet normal 0 0 -1
    outer loop
      vertex 6.991341717541218 0.03806023299694061 0
      vertex 6.897545158863068 0.009607359766960144 0
      vertex 5.299999997019768 2 0
    endloop
  endfacet
  facet normal 0 0 -1
    outer loop
      vertex 7.0777851194143295 0.08426519483327866 0
      vertex 6.991341717541218 0.03806023299694061 0
      vertex 5.299999997019768 2 0
    endloop
  endfacet
  facet normal 0 0 -1
    outer loop
      vertex 7.153553389012814 0.1464466080069542 0
      vertex 7.0777851194143295 0.08426519483327866 0
      vertex 5.299999997019768 2 0
    endloop
  endfacet
  facet normal 0 0 -1
    outer loop
      vertex 7.21573480963707 0.22221488505601883 0
      vertex 7.153553389012814 0.1464466080069542 0
      vertex 5.299999997019768 2 0
    endloop
  endfacet
  facet normal 0 0 -1
    outer loop
      vertex 7.261939764022827 0.30865828692913055 0
      vertex 7.21573480963707 0.22221488505601883 0
      vertex 5.299999997019768 2 0
    endloop
  endfacet
  facet normal 0 0 -1
    outer loop
      vertex 7.290392637252808 0.40245483815670013 0
      vertex 7.261939764022827 0.30865828692913055 0
      vertex 5.299999997019768 2 0
    endloop
  endfacet
  facet normal 0 0 -1
    outer loop
      vertex 7.299999997019768 0.5 0
      vertex 7.290392637252808 0.40245483815670013 0
      vertex 5.299999997019768 2 0
    endloop
  endfacet
  facet normal 0 0 -1
    outer loop
      vertex 7.299999997019768 0.5 0
      vertex 5.299999997019768 2 0
      vertex 5.299999997019768 4 0
    endloop
  endfacet
  facet normal 0 0 -1
    outer loop
      vertex 7.299999997019768 9.5 0
      vertex 7.299999997019768 0.5 0
      vertex 5.299999997019768 4 0
    endloop
  endfacet
  facet normal 0 0 -1
    outer loop
      vertex 7.299999997019768 9.5 0
      vertex 5.299999997019768 4 0
      vertex 5.299999997019768 7.5 0
    endloop
  endfacet
  facet normal 0 0 -1
    outer loop
      vertex 7.299999997019768 9.5 0
      vertex 5.299999997019768 7.5 0
      vertex 5.290392637252808 7.5975451618433 0
    endloop
  endfacet
  facet normal 0 0 -1
    outer loop
      vertex 7.299999997019768 9.5 0
      vertex 5.290392637252808 7.5975451618433 0
      vertex 5.261939764022827 7.6913417130708694 0
    endloop
  endfacet
  facet normal 0 0 -1
    outer loop
      vertex 7.299999997019768 9.5 0
      vertex 5.261939764022827 7.6913417130708694 0
      vertex 5.21573480963707 7.777785114943981 0
    endloop
  endfacet
  facet normal 0 0 -1
    outer loop
      vertex 7.299999997019768 9.5 0
      vertex 5.21573480963707 7.777785114943981 0
      vertex 5.153553389012814 7.853553391993046 0
    endloop
  endfacet
  facet normal 0 0 -1
    outer loop
      vertex 7.299999997019768 9.5 0
      vertex 5.153553389012814 7.853553391993046 0
      vertex 5.0777851194143295 7.915734805166721 0
    endloop
  endfacet
  facet normal 0 0 -1
    outer loop
      vertex 7.299999997019768 9.5 0
      vertex 5.0777851194143295 7.915734805166721 0
      vertex 4.991341717541218 7.961939767003059 0
    endloop
  endfacet
  facet normal 0 0 -1
    outer loop
      vertex 7.299999997019768 9.5 0
      vertex 4.991341717541218 7.961939767003059 0
      vertex 4.897545158863068 7.99039264023304 0
    endloop
  endfacet
  facet normal 0 0 -1
    outer loop
      vertex 7.299999997019768 9.5 0
      vertex 4.897545158863068 7.99039264023304 0
      vertex 4.799999997019768 8 0
    endloop
  endfacet
  facet normal 0 0 -1
    outer loop
      vertex 0.5 10 0
      vertex 7.299999997019768 9.5 0
      vertex 4.799999997019768 8 0
    endloop
  endfacet
  facet normal 0 0 -1
    outer loop
      vertex 0.5 10 0
      vertex 4.799999997019768 8 0
      vertex 2.5 8 0
    endloop
  endfacet
  facet normal 0 0 -1
    outer loop
      vertex 0.5 10 0
      vertex 2.5 8 0
      vertex 2.4024548381567 7.99039264023304 0
    endloop
  endfacet
  facet normal 0 0 -1
    outer loop
      vertex 0.5 10 0
      vertex 2.4024548381567 7.99039264023304 0
      vertex 2.3086582869291306 7.961939767003059 0
    endloop
  endfacet
  facet normal 0 0 -1
    outer loop
      vertex 0.5 10 0
      vertex 2.3086582869291306 7.961939767003059 0
      vertex 2.222214885056019 7.915734805166721 0
    endloop
  endfacet
  facet normal 0 0 -1
    outer loop
      vertex 0.5 10 0
      vertex 2.222214885056019 7.915734805166721 0
      vertex 2.146446608006954 7.853553391993046 0
    endloop
  endfacet
  facet normal 0 0 -1
    outer loop
      vertex 0.5 10 0
      vertex 2.146446608006954 7.853553391993046 0
      vertex 2.0842651948332787 7.777785114943981 0
    endloop
  endfacet
  facet normal 0 0 -1
    outer loop
      vertex 0.5 10 0
      vertex 2.0842651948332787 7.777785114943981 0
      vertex 2.0380602329969406 7.6913417130708694 0
    endloop
  endfacet
  facet normal 0 0 -1
    outer loop
      vertex 0.40245483815670013 9.99039264023304 0
      vertex 0.5 10 0
      vertex 2.0380602329969406 7.6913417130708694 0
    endloop
  endfacet
  facet normal 0 0 -1
    outer loop
      vertex 0.30865828692913055 9.96193976700306 0
      vertex 0.40245483815670013 9.99039264023304 0
      vertex 2.0380602329969406 7.6913417130708694 0
    endloop
  endfacet
  facet normal 0 0 -1
    outer loop
      vertex 0.22221488505601883 9.915734805166721 0
      vertex 0.30865828692913055 9.96193976700306 0
      vertex 2.0380602329969406 7.6913417130708694 0
    endloop
  endfacet
  facet normal 0 0 -1
    outer loop
      vertex 0.1464466080069542 9.853553391993046 0
      vertex 0.22221488505601883 9.915734805166721 0
      vertex 2.0380602329969406 7.6913417130708694 0
    endloop
  endfacet
  facet normal 0 0 -1
    outer loop
      vertex 0.08426519483327866 9.777785114943981 0
      vertex 0.1464466080069542 9.853553391993046 0
      vertex 2.0380602329969406 7.6913417130708694 0
    endloop
  endfacet
  facet normal 0 0 -1
    outer loop
      vertex 0.03806023299694061 9.69134171307087 0
      vertex 0.08426519483327866 9.777785114943981 0
      vertex 2.0380602329969406 7.6913417130708694 0
    endloop
  endfacet
  facet normal 0 0 -1
    outer loop
      vertex 0.009607359766960144 9.5975451618433 0
      vertex 0.03806023299694061 9.69134171307087 0
      vertex 2.0380602329969406 7.6913417130708694 0
    endloop
  endfacet
  facet normal 0 0 -1
    outer loop
      vertex 0 9.5 0
      vertex 0.009607359766960144 9.5975451618433 0
      vertex 2.0380602329969406 7.6913417130708694 0
    endloop
  endfacet
  facet normal 0 0 -1
    outer loop
      vertex 0 9.5 0
      vertex 2.0380602329969406 7.6913417130708694 0
      vertex 2.00960735976696 7.5975451618433 0
    endloop
  endfacet
  facet normal 0 0 -1
    outer loop
      vertex 0 0.5 0
      vertex 0 9.5 0
      vertex 2.00960735976696 7.5975451618433 0
    endloop
  endfacet
  facet normal 0 0 -1
    outer loop
      vertex 0 0.5 0
      vertex 2.00960735976696 7.5975451618433 0
      vertex 2 7.5 0
    endloop
  endfacet
  facet normal 0 0 -1
    outer loop
      vertex 0 0.5 0
      vertex 2 7.5 0
      vertex 2 0.5 0
    endloop
  endfacet
  facet normal 0 0 -1
    outer loop
      vertex 0 0.5 0
      vertex 2 0.5 0
      vertex 1.9903926402330399 0.40245483815670013 0
    endloop
  endfacet
  facet normal 0 0 -1
    outer loop
      vertex 0.009607359766960144 0.40245483815670013 0
      vertex 0 0.5 0
      vertex 1.9903926402330399 0.40245483815670013 0
    endloop
  endfacet
  facet normal 0 0 -1
    outer loop
      vertex 0.009607359766960144 0.40245483815670013 0
      vertex 1.9903926402330399 0.40245483815670013 0
      vertex 1.9619397670030594 0.30865828692913055 0
    endloop
  endfacet
  facet normal 0 0 -1
    outer loop
      vertex 0.03806023299694061 0.30865828692913055 0
      vertex 0.009607359766960144 0.40245483815670013 0
      vertex 1.9619397670030594 0.30865828692913055 0
    endloop
  endfacet
  facet normal 0 0 -1
    outer loop
      vertex 0.03806023299694061 0.30865828692913055 0
      vertex 1.9619397670030594 0.30865828692913055 0
      vertex 1.9157348051667213 0.22221488505601883 0
    endloop
  endfacet
  facet normal 0 0 -1
    outer loop
      vertex 0.08426519483327866 0.22221488505601883 0
      vertex 0.03806023299694061 0.30865828692913055 0
      vertex 1.9157348051667213 0.22221488505601883 0
    endloop
  endfacet
  facet normal 0 0 -1
    outer loop
      vertex 0.08426519483327866 0.22221488505601883 0
      vertex 1.9157348051667213 0.22221488505601883 0
      vertex 1.8535533919930458 0.1464466080069542 0
    endloop
  endfacet
  facet normal 0 0 -1
    outer loop
      vertex 0.1464466080069542 0.1464466080069542 0
      vertex 0.08426519483327866 0.22221488505601883 0
      vertex 1.8535533919930458 0.1464466080069542 0
    endloop
  endfacet
  facet normal 0 0 -1
    outer loop
      vertex 0.1464466080069542 0.1464466080069542 0
      vertex 1.8535533919930458 0.1464466080069542 0
      vertex 1.7777851149439812 0.08426519483327866 0
    endloop
  endfacet
  facet normal 0 0 -1
    outer loop
      vertex 0.22221488505601883 0.08426519483327866 0
      vertex 0.1464466080069542 0.1464466080069542 0
      vertex 1.7777851149439812 0.08426519483327866 0
    endloop
  endfacet
  facet normal 0 0 -1
    outer loop
      vertex 0.22221488505601883 0.08426519483327866 0
      vertex 1.7777851149439812 0.08426519483327866 0
      vertex 1.6913417130708694 0.03806023299694061 0
    endloop
  endfacet
  facet normal 0 0 -1
    outer loop
      vertex 0.30865828692913055 0.03806023299694061 0
      vertex 0.22221488505601883 0.08426519483327866 0
      vertex 1.6913417130708694 0.03806023299694061 0
    endloop
  endfacet
  facet normal 0 0 -1
    outer loop
      vertex 0.30865828692913055 0.03806023299694061 0
      vertex 1.6913417130708694 0.03806023299694061 0
      vertex 1.5975451618432999 0.009607359766960144 0
    endloop
  endfacet
  facet normal 0 0 -1
    outer loop
      vertex 0.40245483815670013 0.009607359766960144 0
      vertex 0.30865828692913055 0.03806023299694061 0
      vertex 1.5975451618432999 0.009607359766960144 0
    endloop
  endfacet
  facet normal 0 0 -1
    outer loop
      vertex 0.40245483815670013 0.009607359766960144 0
      vertex 1.5975451618432999 0.009607359766960144 0
      vertex 1.5 0 0
    endloop
  endfacet
  facet normal 0 0 -1
    outer loop
      vertex 0.40245483815670013 0.009607359766960144 0
      vertex 1.5 0 0
      vertex 0.5 0 0
    endloop
  endfacet
  facet normal 0 0 1
    outer loop
      vertex 5.299999997019768 4 221
      vertex 5.100000001490116 3.5 221
      vertex 5.100000001490116 2.5 221
    endloop
  endfacet
  facet normal 0 0 1
    outer loop
      vertex 5.299999997019768 4 221
      vertex 5.100000001490116 2.5 221
      vertex 5.299999997019768 2 221
    endloop
  endfacet
  facet normal 0 0 1
    outer loop
      vertex 7.261939764022827 9.69134171307087 221
      vertex 7.21573480963707 9.777785114943981 221
      vertex 7.153553389012814 9.853553391993046 221
    endloop
  endfacet
  facet normal 0 0 1
    outer loop
      vertex 7.261939764022827 9.69134171307087 221
      vertex 7.153553389012814 9.853553391993046 221
      vertex 7.0777851194143295 9.915734805166721 221
    endloop
  endfacet
  facet normal 0 0 1
    outer loop
      vertex 7.261939764022827 9.69134171307087 221
      vertex 7.0777851194143295 9.915734805166721 221
      vertex 6.991341717541218 9.96193976700306 221
    endloop
  endfacet
  facet normal 0 0 1
    outer loop
      vertex 7.261939764022827 9.69134171307087 221
      vertex 6.991341717541218 9.96193976700306 221
      vertex 6.897545158863068 9.99039264023304 221
    endloop
  endfacet
  facet normal 0 0 1
    outer loop
      vertex 7.261939764022827 9.69134171307087 221
      vertex 6.897545158863068 9.99039264023304 221
      vertex 6.799999997019768 10 221
    endloop
  endfacet
  facet normal 0 0 1
    outer loop
      vertex 7.290392637252808 9.5975451618433 221
      vertex 7.261939764022827 9.69134171307087 221
      vertex 6.799999997019768 10 221
    endloop
  endfacet
  facet normal 0 0 1
    outer loop
      vertex 7.299999997019768 9.5 221
      vertex 7.290392637252808 9.5975451618433 221
      vertex 6.799999997019768 10 221
    endloop
  endfacet
  facet normal 0 0 1
    outer loop
      vertex 7.299999997019768 9.5 221
      vertex 6.799999997019768 10 221
      vertex 0.5 10 221
    endloop
  endfacet
  facet normal 0 0 1
    outer loop
      vertex 5.338060237467289 0.30865828692913055 221
      vertex 5.384265191853046 0.22221488505601883 221
      vertex 5.4464466124773026 0.1464466080069542 221
    endloop
  endfacet
  facet normal 0 0 1
    outer loop
      vertex 5.338060237467289 0.30865828692913055 221
      vertex 5.4464466124773026 0.1464466080069542 221
      vertex 5.522214882075787 0.08426519483327866 221
    endloop
  endfacet
  facet normal 0 0 1
    outer loop
      vertex 5.338060237467289 0.30865828692913055 221
      vertex 5.522214882075787 0.08426519483327866 221
      vertex 5.608658283948898 0.03806023299694061 221
    endloop
  endfacet
  facet normal 0 0 1
    outer loop
      vertex 5.338060237467289 0.30865828692913055 221
      vertex 5.608658283948898 0.03806023299694061 221
      vertex 5.7024548426270485 0.009607359766960144 221
    endloop
  endfacet
  facet normal 0 0 1
    outer loop
      vertex 5.338060237467289 0.30865828692913055 221
      vertex 5.7024548426270485 0.009607359766960144 221
      vertex 5.799999997019768 0 221
    endloop
  endfacet
  facet normal 0 0 1
    outer loop
      vertex 5.309607356786728 0.40245483815670013 221
      vertex 5.338060237467289 0.30865828692913055 221
      vertex 5.799999997019768 0 221
    endloop
  endfacet
  facet normal 0 0 1
    outer loop
      vertex 5.299999997019768 0.5 221
      vertex 5.309607356786728 0.40245483815670013 221
      vertex 5.799999997019768 0 221
    endloop
  endfacet
  facet normal 0 0 1
    outer loop
      vertex 5.299999997019768 2 221
      vertex 5.299999997019768 0.5 221
      vertex 5.799999997019768 0 221
    endloop
  endfacet
  facet normal 0 0 1
    outer loop
      vertex 5.299999997019768 2 221
      vertex 5.799999997019768 0 221
      vertex 6.799999997019768 0 221
    endloop
  endfacet
  facet normal 0 0 1
    outer loop
      vertex 5.299999997019768 2 221
      vertex 6.799999997019768 0 221
      vertex 6.897545158863068 0.009607359766960144 221
    endloop
  endfacet
  facet normal 0 0 1
    outer loop
      vertex 5.299999997019768 2 221
      vertex 6.897545158863068 0.009607359766960144 221
      vertex 6.991341717541218 0.03806023299694061 221
    endloop
  endfacet
  facet normal 0 0 1
    outer loop
      vertex 5.299999997019768 2 221
      vertex 6.991341717541218 0.03806023299694061 221
      vertex 7.0777851194143295 0.08426519483327866 221
    endloop
  endfacet
  facet normal 0 0 1
    outer loop
      vertex 5.299999997019768 2 221
      vertex 7.0777851194143295 0.08426519483327866 221
      vertex 7.153553389012814 0.1464466080069542 221
    endloop
  endfacet
  facet normal 0 0 1
    outer loop
      vertex 5.299999997019768 2 221
      vertex 7.153553389012814 0.1464466080069542 221
      vertex 7.21573480963707 0.22221488505601883 221
    endloop
  endfacet
  facet normal 0 0 1
    outer loop
      vertex 5.299999997019768 2 221
      vertex 7.21573480963707 0.22221488505601883 221
      vertex 7.261939764022827 0.30865828692913055 221
    endloop
  endfacet
  facet normal 0 0 1
    outer loop
      vertex 5.299999997019768 2 221
      vertex 7.261939764022827 0.30865828692913055 221
      vertex 7.290392637252808 0.40245483815670013 221
    endloop
  endfacet
  facet normal 0 0 1
    outer loop
      vertex 5.299999997019768 2 221
      vertex 7.290392637252808 0.40245483815670013 221
      vertex 7.299999997019768 0.5 221
    endloop
  endfacet
  facet normal 0 0 1
    outer loop
      vertex 5.299999997019768 4 221
      vertex 5.299999997019768 2 221
      vertex 7.299999997019768 0.5 221
    endloop
  endfacet
  facet normal 0 0 1
    outer loop
      vertex 5.299999997019768 4 221
      vertex 7.299999997019768 0.5 221
      vertex 7.299999997019768 9.5 221
    endloop
  endfacet
  facet normal 0 0 1
    outer loop
      vertex 5.299999997019768 7.5 221
      vertex 5.299999997019768 4 221
      vertex 7.299999997019768 9.5 221
    endloop
  endfacet
  facet normal 0 0 1
    outer loop
      vertex 5.290392637252808 7.5975451618433 221
      vertex 5.299999997019768 7.5 221
      vertex 7.299999997019768 9.5 221
    endloop
  endfacet
  facet normal 0 0 1
    outer loop
      vertex 5.261939764022827 7.6913417130708694 221
      vertex 5.290392637252808 7.5975451618433 221
      vertex 7.299999997019768 9.5 221
    endloop
  endfacet
  facet normal 0 0 1
    outer loop
      vertex 5.21573480963707 7.777785114943981 221
      vertex 5.261939764022827 7.6913417130708694 221
      vertex 7.299999997019768 9.5 221
    endloop
  endfacet
  facet normal 0 0 1
    outer loop
      vertex 5.153553389012814 7.853553391993046 221
      vertex 5.21573480963707 7.777785114943981 221
      vertex 7.299999997019768 9.5 221
    endloop
  endfacet
  facet normal 0 0 1
    outer loop
      vertex 5.0777851194143295 7.915734805166721 221
      vertex 5.153553389012814 7.853553391993046 221
      vertex 7.299999997019768 9.5 221
    endloop
  endfacet
  facet normal 0 0 1
    outer loop
      vertex 4.991341717541218 7.961939767003059 221
      vertex 5.0777851194143295 7.915734805166721 221
      vertex 7.299999997019768 9.5 221
    endloop
  endfacet
  facet normal 0 0 1
    outer loop
      vertex 4.897545158863068 7.99039264023304 221
      vertex 4.991341717541218 7.961939767003059 221
      vertex 7.299999997019768 9.5 221
    endloop
  endfacet
  facet normal 0 0 1
    outer loop
      vertex 4.799999997019768 8 221
      vertex 4.897545158863068 7.99039264023304 221
      vertex 7.299999997019768 9.5 221
    endloop
  endfacet
  facet normal 0 0 1
    outer loop
      vertex 4.799999997019768 8 221
      vertex 7.299999997019768 9.5 221
      vertex 0.5 10 221
    endloop
  endfacet
  facet normal 0 0 1
    outer loop
      vertex 2.5 8 221
      vertex 4.799999997019768 8 221
      vertex 0.5 10 221
    endloop
  endfacet
  facet normal 0 0 1
    outer loop
      vertex 2.4024548381567 7.99039264023304 221
      vertex 2.5 8 221
      vertex 0.5 10 221
    endloop
  endfacet
  facet normal 0 0 1
    outer loop
      vertex 2.3086582869291306 7.961939767003059 221
      vertex 2.4024548381567 7.99039264023304 221
      vertex 0.5 10 221
    endloop
  endfacet
  facet normal 0 0 1
    outer loop
      vertex 2.222214885056019 7.915734805166721 221
      vertex 2.3086582869291306 7.961939767003059 221
      vertex 0.5 10 221
    endloop
  endfacet
  facet normal 0 0 1
    outer loop
      vertex 2.146446608006954 7.853553391993046 221
      vertex 2.222214885056019 7.915734805166721 221
      vertex 0.5 10 221
    endloop
  endfacet
  facet normal 0 0 1
    outer loop
      vertex 2.0842651948332787 7.777785114943981 221
      vertex 2.146446608006954 7.853553391993046 221
      vertex 0.5 10 221
    endloop
  endfacet
  facet normal 0 0 1
    outer loop
      vertex 2.0380602329969406 7.6913417130708694 221
      vertex 2.0842651948332787 7.777785114943981 221
      vertex 0.5 10 221
    endloop
  endfacet
  facet normal 0 0 1
    outer loop
      vertex 2.0380602329969406 7.6913417130708694 221
      vertex 0.5 10 221
      vertex 0.40245483815670013 9.99039264023304 221
    endloop
  endfacet
  facet normal 0 0 1
    outer loop
      vertex 2.0380602329969406 7.6913417130708694 221
      vertex 0.40245483815670013 9.99039264023304 221
      vertex 0.30865828692913055 9.96193976700306 221
    endloop
  endfacet
  facet normal 0 0 1
    outer loop
      vertex 2.0380602329969406 7.6913417130708694 221
      vertex 0.30865828692913055 9.96193976700306 221
      vertex 0.22221488505601883 9.915734805166721 221
    endloop
  endfacet
  facet normal 0 0 1
    outer loop
      vertex 2.0380602329969406 7.6913417130708694 221
      vertex 0.22221488505601883 9.915734805166721 221
      vertex 0.1464466080069542 9.853553391993046 221
    endloop
  endfacet
  facet normal 0 0 1
    outer loop
      vertex 2.0380602329969406 7.6913417130708694 221
      vertex 0.1464466080069542 9.853553391993046 221
      vertex 0.08426519483327866 9.777785114943981 221
    endloop
  endfacet
  facet normal 0 0 1
    outer loop
      vertex 2.0380602329969406 7.6913417130708694 221
      vertex 0.08426519483327866 9.777785114943981 221
      vertex 0.03806023299694061 9.69134171307087 221
    endloop
  endfacet
  facet normal 0 0 1
    outer loop
      vertex 2.0380602329969406 7.6913417130708694 221
      vertex 0.03806023299694061 9.69134171307087 221
      vertex 0.009607359766960144 9.5975451618433 221
    endloop
  endfacet
  facet normal 0 0 1
    outer loop
      vertex 2.0380602329969406 7.6913417130708694 221
      vertex 0.009607359766960144 9.5975451618433 221
      vertex 0 9.5 221
    endloop
  endfacet
  facet normal 0 0 1
    outer loop
      vertex 2.00960735976696 7.5975451618433 221
      vertex 2.0380602329969406 7.6913417130708694 221
      vertex 0 9.5 221
    endloop
  endfacet
  facet normal 0 0 1
    outer loop
      vertex 2.00960735976696 7.5975451618433 221
      vertex 0 9.5 221
      vertex 0 0.5 221
    endloop
  endfacet
  facet normal 0 0 1
    outer loop
      vertex 2 7.5 221
      vertex 2.00960735976696 7.5975451618433 221
      vertex 0 0.5 221
    endloop
  endfacet
  facet normal 0 0 1
    outer loop
      vertex 2 0.5 221
      vertex 2 7.5 221
      vertex 0 0.5 221
    endloop
  endfacet
  facet normal 0 0 1
    outer loop
      vertex 1.9903926402330399 0.40245483815670013 221
      vertex 2 0.5 221
      vertex 0 0.5 221
    endloop
  endfacet
  facet normal 0 0 1
    outer loop
      vertex 1.9903926402330399 0.40245483815670013 221
      vertex 0 0.5 221
      vertex 0.009607359766960144 0.40245483815670013 221
    endloop
  endfacet
  facet normal 0 0 1
    outer loop
      vertex 1.9619397670030594 0.30865828692913055 221
      vertex 1.9903926402330399 0.40245483815670013 221
      vertex 0.009607359766960144 0.40245483815670013 221
    endloop
  endfacet
  facet normal 0 0 1
    outer loop
      vertex 1.9619397670030594 0.30865828692913055 221
      vertex 0.009607359766960144 0.40245483815670013 221
      vertex 0.03806023299694061 0.30865828692913055 221
    endloop
  endfacet
  facet normal 0 0 1
    outer loop
      vertex 1.9157348051667213 0.22221488505601883 221
      vertex 1.9619397670030594 0.30865828692913055 221
      vertex 0.03806023299694061 0.30865828692913055 221
    endloop
  endfacet
  facet normal 0 0 1
    outer loop
      vertex 1.9157348051667213 0.22221488505601883 221
      vertex 0.03806023299694061 0.30865828692913055 221
      vertex 0.08426519483327866 0.22221488505601883 221
    endloop
  endfacet
  facet normal 0 0 1
    outer loop
      vertex 1.8535533919930458 0.1464466080069542 221
      vertex 1.9157348051667213 0.22221488505601883 221
      vertex 0.08426519483327866 0.22221488505601883 221
    endloop
  endfacet
  facet normal 0 0 1
    outer loop
      vertex 1.8535533919930458 0.1464466080069542 221
      vertex 0.08426519483327866 0.22221488505601883 221
      vertex 0.1464466080069542 0.1464466080069542 221
    endloop
  endfacet
  facet normal 0 0 1
    outer loop
      vertex 1.7777851149439812 0.08426519483327866 221
      vertex 1.8535533919930458 0.1464466080069542 221
      vertex 0.1464466080069542 0.1464466080069542 221
    endloop
  endfacet
  facet normal 0 0 1
    outer loop
      vertex 1.7777851149439812 0.08426519483327866 221
      vertex 0.1464466080069542 0.1464466080069542 221
      vertex 0.22221488505601883 0.08426519483327866 221
    endloop
  endfacet
  facet normal 0 0 1
    outer loop
      vertex 1.6913417130708694 0.03806023299694061 221
      vertex 1.7777851149439812 0.08426519483327866 221
      vertex 0.22221488505601883 0.08426519483327866 221
    endloop
  endfacet
  facet normal 0 0 1
    outer loop
      vertex 1.6913417130708694 0.03806023299694061 221
      vertex 0.22221488505601883 0.08426519483327866 221
      vertex 0.30865828692913055 0.03806023299694061 221
    endloop
  endfacet
  facet normal 0 0 1
    outer loop
      vertex 1.5975451618432999 0.009607359766960144 221
      vertex 1.6913417130708694 0.03806023299694061 221
      vertex 0.30865828692913055 0.03806023299694061 221
    endloop
  endfacet
  facet normal 0 0 1
    outer loop
      vertex 1.5975451618432999 0.009607359766960144 221
      vertex 0.30865828692913055 0.03806023299694061 221
      vertex 0.40245483815670013 0.009607359766960144 221
    endloop
  endfacet
  facet normal 0 0 1
    outer loop
      vertex 1.5 0 221
      vertex 1.5975451618432999 0.009607359766960144 221
      vertex 0.40245483815670013 0.009607359766960144 221
    endloop
  endfacet
  facet normal 0 0 1
    outer loop
      vertex 0.5 0 221
      vertex 1.5 0 221
      vertex 0.40245483815670013 0.009607359766960144 221
    endloop
  endfacet
endsolid OpenSCAD_Model
